<svg width="128" height="128" viewBox="0 0 128 128" fill="none" xmlns="http://www.w3.org/2000/svg">
<path d="M0 2C0 0.895431 0.895431 0 2 0H126C127.105 0 128 0.895431 128 2V126C128 127.105 127.105 128 126 128H2C0.895431 128 0 127.105 0 126V2Z" fill="#FAFAFA"/>
<path d="M63.5313 41.3757H64.4688C64.5521 41.3757 64.5938 41.4174 64.5938 41.5007V52.5007C64.5938 52.5841 64.5521 52.6257 64.4688 52.6257H63.5313C63.4479 52.6257 63.4062 52.5841 63.4062 52.5007V41.5007C63.4062 41.4174 63.4479 41.3757 63.5313 41.3757Z" fill="black" fill-opacity="0.65"/>
<path d="M58.75 46.407H69.25C69.3333 46.407 69.375 46.4486 69.375 46.532V47.4695C69.375 47.5528 69.3333 47.5945 69.25 47.5945H58.75C58.6667 47.5945 58.625 47.5528 58.625 47.4695V46.532C58.625 46.4486 58.6667 46.407 58.75 46.407Z" fill="black" fill-opacity="0.65"/>
<path d="M50.2393 72.0469V78.8145C50.2347 79.7533 49.9385 80.5212 49.3506 81.1182C48.7673 81.7152 47.9743 82.0501 46.9717 82.123L46.623 82.1367C45.5339 82.1367 44.6657 81.8428 44.0186 81.2549C43.3714 80.667 43.0433 79.8581 43.0342 78.8281V72.0469H44.333V78.7871C44.333 79.5072 44.5312 80.0677 44.9277 80.4688C45.3242 80.8652 45.8893 81.0635 46.623 81.0635C47.3659 81.0635 47.9333 80.8652 48.3252 80.4688C48.7217 80.0723 48.9199 79.514 48.9199 78.7939V72.0469H50.2393ZM58.3604 78.3838C58.3604 79.5094 58.1029 80.4163 57.5879 81.1045C57.0729 81.7926 56.3757 82.1367 55.4961 82.1367C54.5983 82.1367 53.8919 81.8519 53.377 81.2822V84.8438H52.1123V74.6035H53.2676L53.3291 75.4238C53.8441 74.7858 54.5596 74.4668 55.4756 74.4668C56.3643 74.4668 57.0661 74.8018 57.5811 75.4717C58.1006 76.1416 58.3604 77.0736 58.3604 78.2676V78.3838ZM57.0957 78.2402C57.0957 77.4062 56.918 76.7477 56.5625 76.2646C56.207 75.7816 55.7194 75.54 55.0996 75.54C54.334 75.54 53.7598 75.8796 53.377 76.5586V80.0928C53.7552 80.7673 54.334 81.1045 55.1133 81.1045C55.7194 81.1045 56.2002 80.8652 56.5557 80.3867C56.9157 79.9036 57.0957 79.1882 57.0957 78.2402ZM61.3477 82H60.083V71.5H61.3477V82ZM63.043 78.2334C63.043 77.5088 63.1842 76.8571 63.4668 76.2783C63.7539 75.6995 64.1504 75.2529 64.6562 74.9385C65.1667 74.624 65.7477 74.4668 66.3994 74.4668C67.4066 74.4668 68.2201 74.8154 68.8398 75.5127C69.4642 76.21 69.7764 77.1374 69.7764 78.2949V78.3838C69.7764 79.1038 69.6374 79.751 69.3594 80.3252C69.0859 80.8949 68.6917 81.3392 68.1768 81.6582C67.6663 81.9772 67.0785 82.1367 66.4131 82.1367C65.4105 82.1367 64.597 81.7881 63.9727 81.0908C63.3529 80.3936 63.043 79.4707 63.043 78.3223V78.2334ZM64.3145 78.3838C64.3145 79.2041 64.5036 79.8626 64.8818 80.3594C65.2646 80.8561 65.7751 81.1045 66.4131 81.1045C67.0557 81.1045 67.5661 80.8538 67.9443 80.3525C68.3226 79.8467 68.5117 79.1403 68.5117 78.2334C68.5117 77.4222 68.318 76.766 67.9307 76.2646C67.5479 75.7588 67.0374 75.5059 66.3994 75.5059C65.7751 75.5059 65.2715 75.7542 64.8887 76.251C64.5059 76.7477 64.3145 77.4587 64.3145 78.3838ZM75.9287 82C75.8558 81.8542 75.7965 81.5944 75.751 81.2207C75.1631 81.8314 74.4613 82.1367 73.6455 82.1367C72.9163 82.1367 72.3171 81.9316 71.8477 81.5215C71.3828 81.1068 71.1504 80.5827 71.1504 79.9492C71.1504 79.179 71.4421 78.582 72.0254 78.1582C72.6133 77.7298 73.4382 77.5156 74.5 77.5156H75.7305V76.9346C75.7305 76.4925 75.5983 76.1416 75.334 75.8818C75.0697 75.6175 74.68 75.4854 74.165 75.4854C73.7139 75.4854 73.3356 75.5993 73.0303 75.8271C72.7249 76.055 72.5723 76.3307 72.5723 76.6543H71.3008C71.3008 76.2852 71.4307 75.9297 71.6904 75.5879C71.9548 75.2415 72.3102 74.9681 72.7568 74.7676C73.208 74.5671 73.7025 74.4668 74.2402 74.4668C75.0924 74.4668 75.7601 74.681 76.2432 75.1094C76.7262 75.5332 76.9769 76.1188 76.9951 76.8662V80.2705C76.9951 80.9495 77.0817 81.4896 77.2549 81.8906V82H75.9287ZM73.8301 81.0361C74.2266 81.0361 74.6025 80.9336 74.958 80.7285C75.3135 80.5234 75.571 80.2568 75.7305 79.9287V78.4111H74.7393C73.1898 78.4111 72.415 78.8646 72.415 79.7715C72.415 80.168 72.5472 80.4779 72.8115 80.7012C73.0758 80.9245 73.4154 81.0361 73.8301 81.0361ZM78.6699 78.2402C78.6699 77.1055 78.9388 76.194 79.4766 75.5059C80.0143 74.8132 80.7184 74.4668 81.5889 74.4668C82.4548 74.4668 83.1406 74.763 83.6465 75.3555V71.5H84.9111V82H83.749L83.6875 81.207C83.1816 81.8268 82.4775 82.1367 81.5752 82.1367C80.7184 82.1367 80.0189 81.7858 79.4766 81.084C78.9388 80.3822 78.6699 79.4661 78.6699 78.3359V78.2402ZM79.9346 78.3838C79.9346 79.2223 80.1077 79.8786 80.4541 80.3525C80.8005 80.8265 81.279 81.0635 81.8896 81.0635C82.6917 81.0635 83.2773 80.7035 83.6465 79.9834V76.5859C83.2682 75.8887 82.6872 75.54 81.9033 75.54C81.2835 75.54 80.8005 75.7793 80.4541 76.2578C80.1077 76.7363 79.9346 77.445 79.9346 78.3838Z" fill="black" fill-opacity="0.45"/>
<path d="M2 127.5C1.79569 127.5 1.60212 127.459 1.42595 127.386L1.0429 128.31C1.33836 128.433 1.66194 128.5 2 128.5V127.5ZM0.613624 126.574C0.54057 126.398 0.5 126.204 0.5 126H-0.5C-0.5 126.338 -0.432626 126.662 -0.310102 126.957L0.613624 126.574ZM0.5 126V125H-0.5V126H0.5ZM0.5 123V121H-0.5V123H0.5ZM0.5 119V117H-0.5V119H0.5ZM0.5 115V113H-0.5V115H0.5ZM0.5 111V109H-0.5V111H0.5ZM0.5 107V105H-0.5V107H0.5ZM0.5 103V101H-0.5V103H0.5ZM0.5 99V97H-0.5V99H0.5ZM0.5 95V93H-0.5V95H0.5ZM0.5 91V89H-0.5V91H0.5ZM0.5 87V85H-0.5V87H0.5ZM0.5 83V81H-0.5V83H0.5ZM0.5 79V77H-0.5V79H0.5ZM0.5 75V73H-0.5V75H0.5ZM0.5 71V69H-0.5V71H0.5ZM0.5 67V65H-0.5V67H0.5ZM0.5 63V61H-0.5V63H0.5ZM0.5 59V57H-0.5V59H0.5ZM0.5 55V53H-0.5V55H0.5ZM0.5 51V49H-0.5V51H0.5ZM0.5 47V45H-0.5V47H0.5ZM0.5 43V41H-0.5V43H0.5ZM0.5 39V37H-0.5V39H0.5ZM0.5 35V33H-0.5V35H0.5ZM0.5 31V29H-0.5V31H0.5ZM0.5 27V25H-0.5V27H0.5ZM0.5 23V21H-0.5V23H0.5ZM0.5 19V17H-0.5V19H0.5ZM0.5 15V13H-0.5V15H0.5ZM0.5 11V9H-0.5V11H0.5ZM0.5 7V5H-0.5V7H0.5ZM0.5 3V2H-0.5V3H0.5ZM0.5 2C0.5 1.79569 0.54057 1.60212 0.613624 1.42595L-0.310102 1.0429C-0.432626 1.33836 -0.5 1.66194 -0.5 2H0.5ZM1.42595 0.613624C1.60212 0.54057 1.79569 0.5 2 0.5V-0.5C1.66194 -0.5 1.33836 -0.432626 1.0429 -0.310102L1.42595 0.613624ZM2 0.5H3V-0.5H2V0.5ZM5 0.5H7V-0.5H5V0.5ZM9 0.5H11V-0.5H9V0.5ZM13 0.5H15V-0.5H13V0.5ZM17 0.5H19V-0.5H17V0.5ZM21 0.5H23V-0.5H21V0.5ZM25 0.5H27V-0.5H25V0.5ZM29 0.5H31V-0.5H29V0.5ZM33 0.5H35V-0.5H33V0.5ZM37 0.5H39V-0.5H37V0.5ZM41 0.5H43V-0.5H41V0.5ZM45 0.5H47V-0.5H45V0.5ZM49 0.5H51V-0.5H49V0.5ZM53 0.5H55V-0.5H53V0.5ZM57 0.5H59V-0.5H57V0.5ZM61 0.5H63V-0.5H61V0.5ZM65 0.5H67V-0.5H65V0.5ZM69 0.5H71V-0.5H69V0.5ZM73 0.5H75V-0.5H73V0.5ZM77 0.5H79V-0.5H77V0.5ZM81 0.5H83V-0.5H81V0.5ZM85 0.5H87V-0.5H85V0.5ZM89 0.5H91V-0.5H89V0.5ZM93 0.5H95V-0.5H93V0.5ZM97 0.5H99V-0.5H97V0.5ZM101 0.5H103V-0.5H101V0.5ZM105 0.5H107V-0.5H105V0.5ZM109 0.5H111V-0.5H109V0.5ZM113 0.5H115V-0.5H113V0.5ZM117 0.5H119V-0.5H117V0.5ZM121 0.5H123V-0.5H121V0.5ZM125 0.5H126V-0.5H125V0.5ZM126 0.5C126.204 0.5 126.398 0.54057 126.574 0.613624L126.957 -0.310102C126.662 -0.432626 126.338 -0.5 126 -0.5V0.5ZM127.386 1.42595C127.459 1.60212 127.5 1.79569 127.5 2H128.5C128.5 1.66194 128.433 1.33836 128.31 1.0429L127.386 1.42595ZM127.5 2V3H128.5V2H127.5ZM127.5 5V7H128.5V5H127.5ZM127.5 9V11H128.5V9H127.5ZM127.5 13V15H128.5V13H127.5ZM127.5 17V19H128.5V17H127.5ZM127.5 21V23H128.5V21H127.5ZM127.5 25V27H128.5V25H127.5ZM127.5 29V31H128.5V29H127.5ZM127.5 33V35H128.5V33H127.5ZM127.5 37V39H128.5V37H127.5ZM127.5 41V43H128.5V41H127.5ZM127.5 45V47H128.5V45H127.5ZM127.5 49V51H128.5V49H127.5ZM127.5 53V55H128.5V53H127.5ZM127.5 57V59H128.5V57H127.5ZM127.5 61V63H128.5V61H127.5ZM127.5 65V67H128.5V65H127.5ZM127.5 69V71H128.5V69H127.5ZM127.5 73V75H128.5V73H127.5ZM127.5 77V79H128.5V77H127.5ZM127.5 81V83H128.5V81H127.5ZM127.5 85V87H128.5V85H127.5ZM127.5 89V91H128.5V89H127.5ZM127.5 93V95H128.5V93H127.5ZM127.5 97V99H128.5V97H127.5ZM127.5 101V103H128.5V101H127.5ZM127.5 105V107H128.5V105H127.5ZM127.5 109V111H128.5V109H127.5ZM127.5 113V115H128.5V113H127.5ZM127.5 117V119H128.5V117H127.5ZM127.5 121V123H128.5V121H127.5ZM127.5 125V126H128.5V125H127.5ZM127.5 126C127.5 126.204 127.459 126.398 127.386 126.574L128.31 126.957C128.433 126.662 128.5 126.338 128.5 126H127.5ZM126.574 127.386C126.398 127.459 126.204 127.5 126 127.5V128.5C126.338 128.5 126.662 128.433 126.957 128.31L126.574 127.386ZM126 127.5H125V128.5H126V127.5ZM123 127.5H121V128.5H123V127.5ZM119 127.5H117V128.5H119V127.5ZM115 127.5H113V128.5H115V127.5ZM111 127.5H109V128.5H111V127.5ZM107 127.5H105V128.5H107V127.5ZM103 127.5H101V128.5H103V127.5ZM99 127.5H97V128.5H99V127.5ZM95 127.5H93V128.5H95V127.5ZM91 127.5H89V128.5H91V127.5ZM87 127.5H85V128.5H87V127.5ZM83 127.5H81V128.5H83V127.5ZM79 127.5H77V128.5H79V127.5ZM75 127.5H73V128.5H75V127.5ZM71 127.5H69V128.5H71V127.5ZM67 127.5H65V128.5H67V127.5ZM63 127.5H61V128.5H63V127.5ZM59 127.5H57V128.5H59V127.5ZM55 127.5H53V128.5H55V127.5ZM51 127.5H49V128.5H51V127.5ZM47 127.5H45V128.5H47V127.5ZM43 127.5H41V128.5H43V127.5ZM39 127.5H37V128.5H39V127.5ZM35 127.5H33V128.5H35V127.5ZM31 127.5H29V128.5H31V127.5ZM27 127.5H25V128.5H27V127.5ZM23 127.5H21V128.5H23V127.5ZM19 127.5H17V128.5H19V127.5ZM15 127.5H13V128.5H15V127.5ZM11 127.5H9V128.5H11V127.5ZM7 127.5H5V128.5H7V127.5ZM3 127.5H2V128.5H3V127.5ZM2 127C1.86257 127 1.734 126.973 1.61748 126.925L0.85137 128.772C1.20648 128.919 1.59507 129 2 129V127ZM1.07549 126.383C1.02717 126.266 1 126.137 1 126H-1C-1 126.405 -0.919223 126.794 -0.771965 127.149L1.07549 126.383ZM1 126V125H-1V126H1ZM1 123V121H-1V123H1ZM1 119V117H-1V119H1ZM1 115V113H-1V115H1ZM1 111V109H-1V111H1ZM1 107V105H-1V107H1ZM1 103V101H-1V103H1ZM1 99V97H-1V99H1ZM1 95V93H-1V95H1ZM1 91V89H-1V91H1ZM1 87V85H-1V87H1ZM1 83V81H-1V83H1ZM1 79V77H-1V79H1ZM1 75V73H-1V75H1ZM1 71V69H-1V71H1ZM1 67V65H-1V67H1ZM1 63V61H-1V63H1ZM1 59V57H-1V59H1ZM1 55V53H-1V55H1ZM1 51V49H-1V51H1ZM1 47V45H-1V47H1ZM1 43V41H-1V43H1ZM1 39V37H-1V39H1ZM1 35V33H-1V35H1ZM1 31V29H-1V31H1ZM1 27V25H-1V27H1ZM1 23V21H-1V23H1ZM1 19V17H-1V19H1ZM1 15V13H-1V15H1ZM1 11V9H-1V11H1ZM1 7V5H-1V7H1ZM1 3V2H-1V3H1ZM1 2C1 1.86257 1.02717 1.734 1.07549 1.61748L-0.771965 0.85137C-0.919223 1.20648 -1 1.59507 -1 2H1ZM1.61748 1.07549C1.734 1.02717 1.86257 1 2 1V-1C1.59507 -1 1.20648 -0.919223 0.851371 -0.771965L1.61748 1.07549ZM2 1H3V-1H2V1ZM5 1H7V-1H5V1ZM9 1H11V-1H9V1ZM13 1H15V-1H13V1ZM17 1H19V-1H17V1ZM21 1H23V-1H21V1ZM25 1H27V-1H25V1ZM29 1H31V-1H29V1ZM33 1H35V-1H33V1ZM37 1H39V-1H37V1ZM41 1H43V-1H41V1ZM45 1H47V-1H45V1ZM49 1H51V-1H49V1ZM53 1H55V-1H53V1ZM57 1H59V-1H57V1ZM61 1H63V-1H61V1ZM65 1H67V-1H65V1ZM69 1H71V-1H69V1ZM73 1H75V-1H73V1ZM77 1H79V-1H77V1ZM81 1H83V-1H81V1ZM85 1H87V-1H85V1ZM89 1H91V-1H89V1ZM93 1H95V-1H93V1ZM97 1H99V-1H97V1ZM101 1H103V-1H101V1ZM105 1H107V-1H105V1ZM109 1H111V-1H109V1ZM113 1H115V-1H113V1ZM117 1H119V-1H117V1ZM121 1H123V-1H121V1ZM125 1H126V-1H125V1ZM126 1C126.137 1 126.266 1.02717 126.383 1.07549L127.149 -0.771965C126.794 -0.919223 126.405 -1 126 -1V1ZM126.925 1.61748C126.973 1.734 127 1.86257 127 2H129C129 1.59507 128.919 1.20648 128.772 0.851371L126.925 1.61748ZM127 2V3H129V2H127ZM127 5V7H129V5H127ZM127 9V11H129V9H127ZM127 13V15H129V13H127ZM127 17V19H129V17H127ZM127 21V23H129V21H127ZM127 25V27H129V25H127ZM127 29V31H129V29H127ZM127 33V35H129V33H127ZM127 37V39H129V37H127ZM127 41V43H129V41H127ZM127 45V47H129V45H127ZM127 49V51H129V49H127ZM127 53V55H129V53H127ZM127 57V59H129V57H127ZM127 61V63H129V61H127ZM127 65V67H129V65H127ZM127 69V71H129V69H127ZM127 73V75H129V73H127ZM127 77V79H129V77H127ZM127 81V83H129V81H127ZM127 85V87H129V85H127ZM127 89V91H129V89H127ZM127 93V95H129V93H127ZM127 97V99H129V97H127ZM127 101V103H129V101H127ZM127 105V107H129V105H127ZM127 109V111H129V109H127ZM127 113V115H129V113H127ZM127 117V119H129V117H127ZM127 121V123H129V121H127ZM127 125V126H129V125H127ZM127 126C127 126.137 126.973 126.266 126.925 126.383L128.772 127.149C128.919 126.794 129 126.405 129 126H127ZM126.383 126.925C126.266 126.973 126.137 127 126 127V129C126.405 129 126.794 128.919 127.149 128.772L126.383 126.925ZM126 127H125V129H126V127ZM123 127H121V129H123V127ZM119 127H117V129H119V127ZM115 127H113V129H115V127ZM111 127H109V129H111V127ZM107 127H105V129H107V127ZM103 127H101V129H103V127ZM99 127H97V129H99V127ZM95 127H93V129H95V127ZM91 127H89V129H91V127ZM87 127H85V129H87V127ZM83 127H81V129H83V127ZM79 127H77V129H79V127ZM75 127H73V129H75V127ZM71 127H69V129H71V127ZM67 127H65V129H67V127ZM63 127H61V129H63V127ZM59 127H57V129H59V127ZM55 127H53V129H55V127ZM51 127H49V129H51V127ZM47 127H45V129H47V127ZM43 127H41V129H43V127ZM39 127H37V129H39V127ZM35 127H33V129H35V127ZM31 127H29V129H31V127ZM27 127H25V129H27V127ZM23 127H21V129H23V127ZM19 127H17V129H19V127ZM15 127H13V129H15V127ZM11 127H9V129H11V127ZM7 127H5V129H7V127ZM3 127H2V129H3V127Z" fill="#D9D9D9"/>
</svg>
