<?xml version="1.0" standalone="no"?>
<!DOCTYPE svg PUBLIC "-//W3C//DTD SVG 20010904//EN"
 "http://www.w3.org/TR/2001/REC-SVG-20010904/DTD/svg10.dtd">
<svg version="1.0" xmlns="http://www.w3.org/2000/svg"
 width="353.000000pt" height="143.000000pt" viewBox="0 0 353.000000 143.000000"
 preserveAspectRatio="xMidYMid meet">

<g transform="translate(0.000000,143.000000) scale(0.100000,-0.100000)"
fill="#000000" stroke="none">
<path d="M0 1259 l0 -172 113 6 c74 3 95 2 62 -3 -32 -5 3 -7 95 -4 104 4 141
2 130 -6 -11 -8 0 -10 45 -8 61 2 291 -6 488 -18 65 -4 103 -10 95 -15 -8 -6
6 -9 37 -10 l50 -1 -68 -13 c-37 -8 -80 -23 -97 -35 -36 -26 -69 -71 -63 -87
3 -7 0 -13 -6 -13 -6 0 -8 -7 -4 -16 4 -12 0 -14 -22 -8 -25 6 -28 5 -22 -15
7 -28 -12 -28 -75 1 -36 16 -48 27 -47 42 1 18 2 18 6 3 4 -15 7 -16 21 -5 13
11 14 11 8 -1 -7 -10 -3 -12 14 -6 14 5 20 3 16 -3 -4 -6 2 -8 14 -5 16 4 19
2 14 -11 -3 -9 -2 -16 4 -16 19 0 21 30 2 40 -14 7 -19 21 -18 50 0 35 3 40
19 35 13 -4 17 -2 14 7 -5 13 41 43 80 51 11 2 -14 3 -55 2 -41 -1 -140 1
-220 6 -80 4 -254 10 -387 14 -214 7 -243 6 -243 -7 0 -13 43 -16 313 -22 171
-3 352 -9 400 -13 l89 -6 -33 -21 c-18 -11 -39 -21 -47 -22 -8 -2 -17 -6 -20
-10 -4 -4 2 -4 13 0 19 7 19 6 2 -11 -16 -17 -44 -18 -367 -18 -309 0 -350 -2
-350 -15 0 -14 24 -16 193 -13 196 2 502 -7 479 -15 -6 -2 -10 -7 -7 -12 6 -9
-10 -59 -33 -110 -19 -40 -29 -244 -13 -264 7 -8 0 -12 -21 -13 -43 -3 -146
-35 -130 -40 17 -6 15 -33 -3 -33 -9 0 -12 -6 -9 -15 4 -9 19 -15 40 -15 22 0
37 -6 40 -15 4 -9 19 -15 40 -15 40 0 46 -19 7 -21 -16 -1 4 -6 42 -10 39 -5
81 -6 95 -4 20 5 22 3 10 -5 -12 -9 -7 -10 21 -6 20 4 47 2 60 -3 20 -7 16
-10 -33 -16 -71 -9 -76 -22 -9 -21 27 1 44 4 38 9 -7 4 8 5 33 1 31 -4 41 -2
31 4 -9 7 2 8 35 4 27 -2 51 -9 52 -14 2 -4 27 -6 55 -3 l52 5 -60 -16 c-33
-8 -80 -19 -105 -23 -25 -5 -40 -9 -35 -11 20 -4 90 2 95 9 3 4 16 7 30 8 14
0 59 3 100 6 55 3 66 2 42 -5 -17 -5 -32 -13 -32 -18 0 -12 0 -12 77 1 48 8
79 8 122 0 42 -8 78 -8 132 -1 82 12 189 4 154 -12 -15 -6 -13 -7 9 -3 72 14
246 25 246 15 0 -8 49 1 175 31 92 22 98 22 91 10 -4 -5 -24 -12 -46 -16 -35
-6 -38 -8 -25 -21 8 -9 20 -12 27 -8 7 5 19 9 28 10 8 1 29 5 45 8 24 6 27 5
15 -4 -13 -10 -12 -11 5 -5 55 19 79 24 84 16 4 -4 15 -5 25 -1 14 4 16 9 8
14 -7 4 -12 11 -12 15 0 15 72 33 108 27 35 -6 36 -6 17 10 -19 16 -18 16 25
8 68 -12 120 -8 139 11 15 15 14 16 -14 11 -16 -3 -10 1 15 9 25 8 62 17 83
20 21 3 35 10 32 15 -3 4 8 11 25 15 40 9 38 25 -2 25 -60 0 -14 20 58 26 96
7 114 12 114 30 0 9 5 12 12 8 7 -5 8 -3 2 7 -5 8 -9 19 -9 24 0 6 -7 9 -16 7
-13 -2 -12 10 9 70 18 54 25 97 26 163 1 69 4 92 16 97 13 6 13 7 -1 7 -9 1
-19 10 -22 22 -5 20 -3 20 99 14 57 -3 104 -3 104 0 0 15 -28 32 -62 38 -29 4
-36 3 -31 -9 7 -20 -112 -20 -124 0 -4 7 -33 19 -63 25 -60 13 -100 34 -100
54 0 9 -10 12 -27 10 -23 -3 -39 7 -85 50 -44 42 -70 58 -116 71 -69 19 -178
21 -210 2 -22 -12 -20 -13 26 -14 34 0 69 -10 110 -31 33 -17 63 -27 67 -23 5
4 5 1 1 -5 -4 -7 -3 -13 2 -13 5 0 12 -10 15 -21 5 -20 3 -21 -38 -16 -25 2
-42 1 -39 -4 3 -5 -2 -6 -10 -3 -9 3 -14 10 -11 14 7 12 -23 40 -44 40 -9 0
-22 -5 -28 -11 -17 -17 -93 -18 -93 -2 0 9 -6 10 -24 3 -13 -5 -27 -6 -32 -2
-4 4 -4 2 -1 -5 9 -14 -2 -45 -13 -38 -5 3 -11 1 -15 -5 -4 -6 14 -10 47 -10
65 0 86 -11 62 -31 -9 -8 -20 -13 -23 -12 -15 6 -39 -9 -35 -22 4 -10 -9 -14
-48 -18 -29 -3 -84 -11 -121 -17 -92 -17 -111 0 -30 26 l58 19 -40 3 c-22 2
-45 8 -52 13 -7 7 -18 7 -30 1 -10 -5 -36 -12 -58 -15 -22 -3 -92 -15 -155
-26 -159 -27 -194 -31 -185 -23 3 4 23 13 43 19 35 12 35 12 6 8 -18 -2 -45
-7 -60 -10 -18 -3 -13 1 13 10 69 27 63 43 -15 38 -106 -6 -322 -34 -351 -44
-25 -9 -25 -9 -6 7 11 8 52 32 90 52 59 30 79 35 128 33 31 -1 57 3 57 8 0 16
-41 20 -101 9 -39 -7 -67 -7 -86 0 -27 10 -27 10 12 11 34 1 47 8 78 40 21 22
55 48 77 57 22 10 40 21 40 25 0 4 24 16 53 27 54 22 199 38 376 41 217 5 556
-31 600 -63 11 -8 13 -8 8 1 -5 8 1 9 20 4 16 -4 28 -12 28 -18 0 -6 3 -15 8
-19 4 -4 7 1 7 12 0 19 3 19 93 8 50 -7 95 -13 100 -13 4 -1 7 -23 7 -51 0
-43 -3 -50 -20 -50 -11 0 -19 3 -19 8 1 4 0 21 -1 37 -2 30 -2 30 -10 5 l-8
-25 -8 24 c-7 23 -8 23 -20 6 -13 -17 -14 -17 -23 6 -5 13 -10 18 -10 10 -1
-11 -5 -10 -21 4 -11 10 -17 22 -14 26 8 14 -12 10 -24 -4 -8 -10 -3 -19 23
-40 19 -15 37 -27 41 -27 4 0 12 -7 18 -15 11 -14 126 -38 136 -28 3 3 -1 8
-7 10 -8 3 -13 23 -13 49 0 43 1 44 33 44 35 -1 89 -8 307 -39 180 -26 186
-27 290 -41 47 -6 95 -13 108 -15 l22 -5 0 205 c-1 183 -8 242 -22 187 -6 -21
-38 -26 -38 -5 0 7 -5 13 -11 13 -6 0 -9 -7 -5 -15 6 -17 -11 -20 -33 -6 -8 5
-10 14 -6 21 5 9 4 11 -3 6 -7 -4 -12 -2 -12 4 0 6 -12 9 -27 7 -19 -3 -28
-10 -27 -21 2 -23 -13 -20 -21 4 -6 20 -15 20 -1443 19 -790 -1 -1429 -3
-1419 -6 17 -4 25 -33 9 -33 -4 0 -9 -15 -10 -32 -3 -42 -23 -130 -28 -125
-11 11 -19 177 -9 178 26 2 -35 18 -71 18 l-41 1 -16 -73 c-9 -40 -14 -83 -10
-95 3 -15 1 -22 -8 -22 -23 0 -17 -50 6 -55 45 -8 404 -28 418 -22 10 4 15 15
12 29 -2 13 -6 62 -10 111 l-6 87 38 0 c21 0 33 -4 27 -8 -6 -4 -10 -16 -8
-27 4 -25 -16 -147 -26 -158 -12 -13 0 -45 19 -51 9 -3 -15 -3 -54 -1 -97 7
-369 24 -495 31 -58 3 -121 10 -140 14 -21 5 9 6 76 3 l111 -6 2 122 2 121
-59 0 -60 0 -6 -35 c-4 -19 -12 -35 -19 -35 -7 0 -6 -4 3 -10 12 -8 10 -10 -9
-10 -17 0 -22 4 -17 15 3 8 3 29 -1 45 -5 27 -9 30 -44 30 l-39 0 0 -171z
m3254 122 c-8 -9 -22 12 -17 26 6 15 7 14 13 -3 4 -10 6 -21 4 -23z m-2624 21
c-8 -4 -15 -13 -16 -19 -3 -38 -5 -43 -16 -43 -15 0 -18 50 -3 51 6 1 -1 5
-15 9 -21 7 -17 8 20 8 25 0 38 -2 30 -6z m1200 -6 c0 -15 -24 -16 -37 -1 -4
4 -3 5 4 1 6 -3 14 -2 18 4 9 14 15 12 15 -4z m-942 -26 c10 0 13 -3 7 -8 -11
-8 -12 -17 -18 -102 -3 -30 -9 -56 -16 -58 -6 -2 -9 -8 -5 -13 3 -5 0 -9 -5
-9 -7 0 -11 37 -11 101 0 88 2 100 16 95 9 -3 23 -6 32 -6z m942 -22 c0 -16
-3 -19 -11 -11 -6 6 -8 16 -5 22 11 17 16 13 16 -11z m1680 6 c0 -8 -5 -12
-10 -9 -6 4 -8 11 -5 16 9 14 15 11 15 -7z m-2492 -4 c9 0 10 -5 4 -17 -5 -10
-12 -38 -16 -62 -8 -54 -29 -121 -37 -121 -3 0 -7 48 -7 106 -1 105 -1 106 21
100 12 -3 28 -6 35 -6z m2167 -8 c-3 -3 -11 0 -18 7 -9 10 -8 11 6 5 10 -3 15
-9 12 -12z m-2073 -9 c-6 -2 -9 -9 -6 -14 8 -13 -6 -159 -16 -159 -3 0 -7 6
-7 13 -1 6 -2 45 -3 84 -2 40 -7 70 -11 67 -5 -3 -9 0 -9 5 0 6 15 11 33 10
17 0 26 -3 19 -6z m113 -25 c-1 -13 2 -29 8 -35 6 -9 6 -13 -1 -13 -6 0 -9 -7
-6 -15 4 -8 1 -15 -5 -15 -6 0 -8 -7 -5 -15 4 -8 2 -15 -2 -15 -5 0 -10 -18
-12 -40 -2 -38 -1 -40 28 -40 16 0 30 -5 30 -11 0 -7 -11 -9 -29 -6 -15 3 -33
1 -40 -6 -8 -8 -11 -8 -11 1 0 7 -16 12 -42 12 -24 0 -50 5 -58 11 -11 7 1 9
43 4 l58 -7 -3 106 -3 106 26 0 c21 0 25 -4 24 -22z m682 0 c-3 -8 -6 -5 -6 6
-1 11 2 17 5 13 3 -3 4 -12 1 -19z m-598 3 c9 -6 10 -11 2 -15 -6 -4 -11 -38
-11 -82 0 -46 -4 -74 -11 -74 -7 0 -9 31 -8 90 2 50 6 90 9 90 3 0 11 -4 19
-9z m508 -33 c-3 -7 -5 -2 -5 12 0 14 2 19 5 13 2 -7 2 -19 0 -25z m-411 -54
c-7 -48 -16 -79 -26 -84 -13 -7 -15 4 -15 76 -1 84 -1 84 25 84 l26 0 -10 -76z
m94 54 c0 -43 -15 -90 -30 -98 -16 -9 -19 -4 -22 50 -3 60 -3 60 25 60 15 0
27 -6 27 -12z m1740 -4 c0 -2 -7 -4 -15 -4 -8 0 -15 4 -15 10 0 5 7 7 15 4 8
-4 15 -8 15 -10z m-913 -10 c-3 -3 -12 -4 -19 -1 -8 3 -5 6 6 6 11 1 17 -2 13
-5z m-594 -24 c-5 -20 -43 -29 -43 -10 0 6 6 10 13 10 8 0 7 4 -3 10 -12 8 -9
10 12 10 21 0 25 -4 21 -20z m87 -1 c0 -27 -59 -15 -60 12 0 3 13 6 30 5 20
-1 30 -6 30 -17z m50 -9 c-19 -13 -30 -13 -30 0 0 6 10 10 23 10 18 0 19 -2 7
-10z m99 -6 c2 -2 -12 -4 -32 -4 -20 0 -38 4 -42 9 -5 9 64 4 74 -5z m-1793
-64 c35 0 64 -3 64 -7 0 -12 -144 -3 -155 9 -7 8 -4 9 8 4 10 -3 48 -6 83 -6z
m101 -6 c-3 -3 -12 -4 -19 -1 -8 3 -5 6 6 6 11 1 17 -2 13 -5z m76 -11 c-13
-2 -33 -2 -45 0 -13 2 -3 4 22 4 25 0 35 -2 23 -4z m565 -10 c-16 -2 -40 -2
-55 0 -16 2 -3 4 27 4 30 0 43 -2 28 -4z m107 -2 l40 -9 -45 -2 -45 -3 35 -7
c28 -6 23 -7 -30 -7 -36 0 -55 2 -42 4 15 3 22 10 18 19 -6 16 9 17 69 5z
m-292 -8 c-7 -2 -19 -2 -25 0 -7 3 -2 5 12 5 14 0 19 -2 13 -5z m-420 -10 c-7
-2 -21 -2 -30 0 -10 3 -4 5 12 5 17 0 24 -2 18 -5z m44 1 c-3 -3 -12 -4 -19
-1 -8 3 -5 6 6 6 11 1 17 -2 13 -5z m152 -10 c8 -7 -63 -2 -94 7 -20 5 -9 6
30 2 33 -3 62 -7 64 -9z m816 6 c3 -5 -3 -10 -14 -10 -10 0 -21 -3 -24 -7 -2
-5 -2 -3 -1 4 2 6 -2 14 -9 17 -7 2 0 5 15 5 15 1 30 -3 33 -9z m-657 -17
c-10 -2 -26 -2 -35 0 -10 3 -2 5 17 5 19 0 27 -2 18 -5z m145 0 c-7 -2 -19 -2
-25 0 -7 3 -2 5 12 5 14 0 19 -2 13 -5z m340 0 c-13 -2 -33 -2 -45 0 -13 2 -3
4 22 4 25 0 35 -2 23 -4z m-235 -10 c-10 -2 -28 -2 -40 0 -13 2 -5 4 17 4 22
1 32 -1 23 -4z m69 1 c-3 -3 -12 -4 -19 -1 -8 3 -5 6 6 6 11 1 17 -2 13 -5z
m136 -11 c-7 -2 -21 -2 -30 0 -10 3 -4 5 12 5 17 0 24 -2 18 -5z m1417 -101
c0 -24 -21 -8 -36 28 l-15 34 26 -24 c14 -13 25 -30 25 -38z m-1359 -32 c-41
-21 -89 -54 -108 -72 -18 -17 -33 -27 -33 -20 0 6 -20 -1 -45 -17 -61 -38 -85
-32 -85 21 0 35 2 39 15 28 13 -11 13 -15 3 -21 -10 -7 -9 -9 4 -9 10 0 22 9
28 20 6 11 21 20 34 20 13 0 26 7 30 15 3 8 12 15 21 15 9 0 35 10 58 23 36
19 81 31 137 35 8 1 -18 -16 -59 -38z m1272 18 c-3 -7 73 -13 100 -9 4 0 7 -5
7 -12 0 -9 -31 -11 -130 -9 -115 3 -130 5 -130 20 0 15 11 17 79 17 43 0 77
-3 74 -7z m-513 -28 c-8 -5 -19 -10 -25 -10 -5 0 -3 5 5 10 8 5 20 10 25 10 6
0 3 -5 -5 -10z m811 -38 c-7 -2 -18 1 -23 6 -8 8 -4 9 13 5 13 -4 18 -8 10
-11z m-515 -29 c9 -36 -2 -39 -20 -4 -20 37 -20 42 -1 35 8 -4 18 -17 21 -31z
m431 -5 c-3 -8 -6 -5 -6 6 -1 11 2 17 5 13 3 -3 4 -12 1 -19z m93 0 c0 -6 -6
-5 -15 2 -12 10 -15 10 -15 0 0 -8 -3 -11 -6 -7 -3 3 -3 10 0 16 8 12 36 3 36
-11z m-765 -8 c-3 -5 -10 -10 -16 -10 -5 0 -29 -9 -54 -21 -64 -30 -76 -18
-14 14 53 27 96 36 84 17z m-414 -47 c0 -5 2 -18 3 -30 2 -16 -3 -23 -15 -23
-28 0 -49 11 -49 26 0 8 -4 14 -10 14 -5 0 -6 -8 -3 -17 6 -16 5 -16 -10 -4
-9 7 -17 17 -17 22 0 13 99 25 101 12z m92 -5 c8 -23 -5 -38 -33 -38 -19 0
-29 6 -33 19 -3 11 -2 22 1 25 11 11 60 6 65 -6z m88 -7 c-6 -10 -7 -22 -3
-26 4 -3 -9 -5 -28 -3 -27 2 -36 8 -38 26 -3 20 1 22 38 22 37 0 40 -2 31 -19z
m79 -7 c0 -22 -4 -25 -27 -22 -20 2 -29 9 -31 26 -3 19 1 22 27 22 27 0 31 -4
31 -26z m810 -11 c-11 -17 -11 -17 -6 0 3 10 6 24 7 30 0 9 2 9 5 0 3 -7 0
-20 -6 -30z m-1541 -32 c0 -14 -1 -14 -6 -1 -3 8 -13 24 -22 35 -16 20 -16 20
7 1 12 -11 22 -26 21 -35z m-310 13 c14 -12 -19 -1 -35 12 -18 14 -18 14 6 3
14 -6 27 -13 29 -15z m1495 -49 c11 -26 21 -35 39 -35 24 0 138 34 169 51 16
9 17 7 7 -15 -8 -17 -29 -30 -73 -45 -33 -12 -83 -32 -110 -46 l-49 -24 24 25
c17 18 20 27 12 32 -11 7 -43 72 -43 87 0 15 11 1 24 -30z m-1259 5 c-3 -5
-17 -10 -31 -10 -13 0 -24 5 -24 10 0 6 14 10 31 10 17 0 28 -4 24 -10z m82
-37 c-3 -10 -5 -2 -5 17 0 19 2 27 5 18 2 -10 2 -26 0 -35z m1552 -47 c9 -10
9 -16 3 -16 -18 0 -32 36 -31 77 l2 38 6 -42 c4 -23 13 -48 20 -57z m-59 71
c0 -2 -10 -12 -22 -23 l-23 -19 19 23 c18 21 26 27 26 19z m-75 -57 c-3 -5 0
-10 7 -10 10 0 10 -2 -1 -9 -8 -5 -21 -7 -29 -3 -10 3 -13 1 -8 -6 4 -7 -12
-17 -46 -27 -83 -26 -170 -46 -176 -40 -6 5 -2 7 93 34 39 12 88 32 110 46 43
26 60 31 50 15z m158 -47 c-7 -2 -19 -2 -25 0 -7 3 -2 5 12 5 14 0 19 -2 13
-5z m162 -113 c-3 -5 -11 -10 -16 -10 -6 0 -7 5 -4 10 3 6 11 10 16 10 6 0 7
-4 4 -10z m-1960 -28 c-3 -3 -11 0 -18 7 -9 10 -8 11 6 5 10 -3 15 -9 12 -12z
m88 -9 c-7 -2 -21 -2 -30 0 -10 3 -4 5 12 5 17 0 24 -2 18 -5z m62 -3 c-3 -5
-12 -10 -18 -10 -7 0 -6 4 3 10 19 12 23 12 15 0z m1250 0 c-27 -12 -43 -12
-25 0 8 5 22 9 30 9 10 0 8 -3 -5 -9z m369 -55 c-53 -22 -111 -28 -111 -12 0
9 8 13 21 10 16 -4 18 -2 7 5 -10 7 5 10 50 10 61 0 62 -1 33 -13z m-529 -14
c-3 -6 -14 -11 -23 -11 -13 0 -13 2 4 14 21 15 30 14 19 -3z m342 -27 c-3 -3
-12 -4 -19 -1 -8 3 -5 6 6 6 11 1 17 -2 13 -5z m-54 -11 c-7 -2 -21 -2 -30 0
-10 3 -4 5 12 5 17 0 24 -2 18 -5z m-56 -9 c-3 -3 -12 -4 -19 -1 -8 3 -5 6 6
6 11 1 17 -2 13 -5z m-72 -13 c-11 -4 -33 -11 -50 -14 l-30 -6 30 14 c17 8 39
14 50 14 l20 0 -20 -8z m205 -1 c0 -5 -10 -10 -22 -10 -19 0 -20 2 -8 10 19
13 30 13 30 0z"/>
<path d="M1540 786 c0 -9 7 -16 16 -16 9 0 14 5 12 12 -6 18 -28 21 -28 4z"/>
<path d="M1620 785 c0 -8 7 -15 15 -15 8 0 15 7 15 15 0 8 -7 15 -15 15 -8 0
-15 -7 -15 -15z"/>
<path d="M1710 785 c0 -8 7 -15 15 -15 8 0 15 7 15 15 0 8 -7 15 -15 15 -8 0
-15 -7 -15 -15z"/>
<path d="M1792 788 c7 -19 38 -22 38 -4 0 10 -9 16 -21 16 -12 0 -19 -5 -17
-12z"/>
<path d="M2170 1153 c0 -9 -29 -10 -101 -6 -70 4 -100 2 -95 -5 3 -6 -7 -13
-26 -17 -43 -10 -128 -47 -128 -56 0 -4 -18 -10 -40 -14 -22 -4 -40 -11 -40
-16 0 -6 -4 -8 -9 -4 -5 3 -13 0 -17 -6 -3 -6 0 -15 7 -20 10 -6 7 -9 -11 -9
-14 0 -32 5 -40 10 -10 6 -11 10 -2 10 6 0 12 6 12 14 0 8 8 17 18 19 9 2 4 3
-13 0 -16 -2 -39 -12 -50 -23 -14 -13 -36 -20 -61 -21 -21 0 -57 -4 -79 -8
-37 -7 -33 -8 40 -14 151 -13 552 -10 500 3 -24 6 -26 8 -7 9 12 0 22 6 22 11
0 6 5 10 12 10 6 0 19 7 29 16 9 8 26 16 36 17 27 2 71 83 55 99 -9 9 -12 9
-12 1z m-32 -52 c10 -6 9 -11 -4 -22 -16 -12 -17 -12 -11 3 3 9 1 19 -6 22 -7
2 -7 5 -2 5 6 0 16 -3 23 -8z m-271 -97 c-3 -3 -12 -4 -19 -1 -8 3 -5 6 6 6
11 1 17 -2 13 -5z m133 -10 c0 -2 -7 -4 -15 -4 -8 0 -15 4 -15 10 0 5 7 7 15
4 8 -4 15 -8 15 -10z"/>
<path d="M1740 1080 c0 -5 4 -10 9 -10 6 0 13 5 16 10 3 6 -1 10 -9 10 -9 0
-16 -4 -16 -10z"/>
<path d="M3040 1028 c0 -31 -3 -39 -10 -28 -8 12 -10 11 -10 -7 0 -38 -30 -28
-31 10 l-1 32 -8 -30 c-7 -28 -8 -28 -9 -5 -1 20 -3 22 -11 10 -8 -12 -10 -12
-11 5 -1 17 -2 16 -9 -5 -7 -23 -8 -22 -10 10 -1 29 -3 32 -10 15 -6 -14 -9
-16 -11 -5 -1 8 -5 -1 -8 -20 -4 -19 -6 -38 -4 -41 1 -4 39 -7 83 -8 l80 -1 0
49 c0 27 -4 53 -10 56 -6 4 -10 -11 -10 -37z"/>
<path d="M943 1033 c9 -2 25 -2 35 0 9 3 1 5 -18 5 -19 0 -27 -2 -17 -5z"/>
<path d="M2829 1008 c-5 -34 -3 -38 18 -38 17 0 22 5 20 20 -4 27 -17 37 -18
14 -1 -11 -4 -6 -8 11 l-7 30 -5 -37z"/>
<path d="M3240 991 c0 -31 -14 -42 -23 -18 -3 7 -6 5 -6 -5 -1 -13 7 -18 24
-18 21 0 25 5 25 29 0 17 -4 33 -10 36 -6 4 -10 -7 -10 -24z"/>
<path d="M3170 981 c0 -17 5 -31 10 -31 6 0 10 11 10 24 0 14 -4 28 -10 31 -6
4 -10 -7 -10 -24z"/>
<path d="M7 983 c7 -2 19 -2 26 0 6 3 1 5 -13 5 -14 0 -19 -2 -13 -5z"/>
<path d="M143 983 c9 -2 25 -2 35 0 9 3 1 5 -18 5 -19 0 -27 -2 -17 -5z"/>
<path d="M3280 985 c0 -8 27 -35 34 -35 14 0 4 20 -14 30 -11 6 -20 8 -20 5z"/>
<path d="M493 973 c9 -2 23 -2 30 0 6 3 -1 5 -18 5 -16 0 -22 -2 -12 -5z"/>
<path d="M3405 964 c-17 -17 -17 -19 -2 -22 27 -5 35 1 28 22 -7 18 -8 18 -26
0z"/>
<path d="M0 961 c0 -8 51 -12 173 -13 239 -2 510 1 515 7 3 3 -123 5 -280 5
-157 0 -313 3 -347 6 -43 5 -61 3 -61 -5z"/>
<path d="M3355 960 c-8 -13 -1 -24 14 -19 6 3 7 10 2 18 -6 10 -10 10 -16 1z"/>
<path d="M3460 950 c0 -5 10 -10 23 -10 18 0 19 2 7 10 -19 13 -30 13 -30 0z"/>
<path d="M2893 943 c26 -2 68 -2 95 0 26 2 4 3 -48 3 -52 0 -74 -1 -47 -3z"/>
<path d="M1718 933 c6 -2 18 -2 25 0 6 3 1 5 -13 5 -14 0 -19 -2 -12 -5z"/>
<path d="M3148 933 c23 -2 61 -2 85 0 23 2 4 4 -43 4 -47 0 -66 -2 -42 -4z"/>
<path d="M3280 930 c0 -5 5 -10 11 -10 5 0 7 5 4 10 -3 6 -8 10 -11 10 -2 0
-4 -4 -4 -10z"/>
<path d="M1630 921 c-21 -6 -22 -8 -8 -13 22 -9 89 2 82 13 -6 10 -38 10 -74
0z"/>
<path d="M3153 889 c14 -8 22 -8 30 0 8 8 3 11 -18 11 -26 -1 -28 -2 -12 -11z"/>
<path d="M3243 893 c9 -2 23 -2 30 0 6 3 -1 5 -18 5 -16 0 -22 -2 -12 -5z"/>
<path d="M3350 889 c0 -5 5 -7 10 -4 6 3 10 8 10 11 0 2 -4 4 -10 4 -5 0 -10
-5 -10 -11z"/>
<path d="M3490 896 c0 -2 9 -6 20 -9 11 -3 20 -1 20 4 0 5 -9 9 -20 9 -11 0
-20 -2 -20 -4z"/>
<path d="M0 850 c0 -5 9 -10 21 -10 11 0 17 5 14 10 -3 6 -13 10 -21 10 -8 0
-14 -4 -14 -10z"/>
<path d="M228 753 c6 -2 18 -2 25 0 6 3 1 5 -13 5 -14 0 -19 -2 -12 -5z"/>
<path d="M573 753 c9 -2 25 -2 35 0 9 3 1 5 -18 5 -19 0 -27 -2 -17 -5z"/>
<path d="M2756 353 c10 -10 19 -10 46 1 l33 14 -46 -1 c-36 -2 -43 -4 -33 -14z"/>
<path d="M2690 350 c0 -5 9 -10 20 -10 11 0 20 5 20 10 0 6 -9 10 -20 10 -11
0 -20 -4 -20 -10z"/>
<path d="M2518 273 c7 -3 16 -2 19 1 4 3 -2 6 -13 5 -11 0 -14 -3 -6 -6z"/>
<path d="M2585 265 c11 -8 27 -20 35 -27 13 -12 21 -11 50 5 l35 18 -42 -6
c-34 -5 -44 -3 -49 9 -3 9 -16 16 -28 16 -21 -1 -21 -1 -1 -15z"/>
<path d="M2768 273 c7 -3 16 -2 19 1 4 3 -2 6 -13 5 -11 0 -14 -3 -6 -6z"/>
<path d="M3195 270 c-3 -5 -2 -10 4 -10 5 0 13 5 16 10 3 6 2 10 -4 10 -5 0
-13 -4 -16 -10z"/>
<path d="M2315 260 c-3 -6 1 -7 9 -4 18 7 21 14 7 14 -6 0 -13 -4 -16 -10z"/>
<path d="M2662 224 c-24 -10 -39 -11 -56 -3 -17 8 -29 8 -42 0 -17 -11 -17
-11 3 -6 13 3 30 2 39 -3 14 -8 9 -13 -31 -31 -54 -24 -68 -26 -43 -8 26 20 6
45 -24 30 -13 -6 -46 -19 -75 -28 -28 -9 -54 -22 -57 -30 -3 -9 0 -12 10 -8
10 4 12 0 8 -11 -5 -12 -2 -15 10 -10 21 8 20 -5 -1 -23 -14 -10 -10 -10 14 2
18 8 41 15 52 15 11 0 27 7 35 16 9 8 20 13 25 10 5 -4 16 1 24 9 8 8 39 24
68 36 30 11 56 24 59 28 3 5 12 10 20 13 7 2 10 7 4 10 -5 4 -24 0 -42 -8z
m-172 -59 c0 -7 -58 -35 -72 -35 -7 1 3 9 22 19 37 20 50 24 50 16z"/>
<path d="M2974 216 c11 -9 24 -16 30 -16 12 0 7 5 -24 19 -24 11 -24 11 -6 -3z"/>
<path d="M2002 202 c4 -12 2 -19 -3 -16 -5 3 -16 -2 -25 -10 -8 -9 -12 -17 -7
-17 55 -8 67 -7 53 1 -16 10 -11 12 29 14 13 1 26 8 29 16 4 12 2 12 -8 3 -10
-10 -20 -8 -43 9 l-30 22 5 -22z"/>
<path d="M1258 203 c7 -3 16 -2 19 1 4 3 -2 6 -13 5 -11 0 -14 -3 -6 -6z"/>
<path d="M1760 200 c0 -5 5 -10 11 -10 5 0 7 5 4 10 -3 6 -8 10 -11 10 -2 0
-4 -4 -4 -10z"/>
<path d="M2235 200 c3 -5 8 -10 11 -10 2 0 4 5 4 10 0 6 -5 10 -11 10 -5 0 -7
-4 -4 -10z"/>
<path d="M2188 193 c6 -2 18 -2 25 0 6 3 1 5 -13 5 -14 0 -19 -2 -12 -5z"/>
<path d="M2366 192 c-10 -16 29 -20 49 -6 17 12 17 14 2 14 -9 0 -17 -5 -17
-11 0 -8 -4 -8 -14 0 -8 7 -17 8 -20 3z"/>
<path d="M1000 180 c-12 -8 -10 -10 10 -10 14 0 32 5 40 10 12 8 10 10 -10 10
-14 0 -32 -5 -40 -10z"/>
<path d="M1258 183 c7 -3 16 -2 19 1 4 3 -2 6 -13 5 -11 0 -14 -3 -6 -6z"/>
<path d="M1503 173 c9 -2 25 -2 35 0 9 3 1 5 -18 5 -19 0 -27 -2 -17 -5z"/>
<path d="M1448 163 c7 -3 16 -2 19 1 4 3 -2 6 -13 5 -11 0 -14 -3 -6 -6z"/>
<path d="M3520 156 c0 -14 -39 -50 -63 -59 -7 -2 -9 -8 -5 -12 5 -5 16 -1 25
7 31 26 49 32 26 8 -12 -13 -37 -24 -59 -27 -41 -4 -57 -13 -36 -20 6 -3 12
-9 12 -15 0 -6 -7 -7 -16 -4 -9 4 -23 1 -31 -6 -12 -10 -18 -9 -28 6 -19 25
-39 12 -22 -14 19 -31 91 -28 119 5 21 25 58 34 58 15 0 -5 6 -7 14 -4 10 4
14 24 15 70 0 35 -2 64 -4 64 -3 0 -5 -6 -5 -14z m0 -76 c0 -5 -5 -10 -11 -10
-5 0 -7 5 -4 10 3 6 8 10 11 10 2 0 4 -4 4 -10z"/>
<path d="M938 153 c6 -2 18 -2 25 0 6 3 1 5 -13 5 -14 0 -19 -2 -12 -5z"/>
<path d="M1913 143 c9 -2 23 -2 30 0 6 3 -1 5 -18 5 -16 0 -22 -2 -12 -5z"/>
<path d="M2150 130 c-9 -6 -10 -10 -3 -10 6 0 15 5 18 10 8 12 4 12 -15 0z"/>
<path d="M2295 133 c-31 -6 -95 -37 -95 -46 0 -8 29 -2 86 18 22 8 35 15 29
15 -5 1 -1 5 10 10 21 9 5 11 -30 3z"/>
<path d="M2995 119 c-22 -10 -29 -16 -15 -13 28 7 80 33 65 33 -5 0 -28 -9
-50 -20z"/>
<path d="M1965 120 c-18 -8 -18 -9 5 -9 14 0 32 4 40 9 12 8 12 10 -5 9 -11 0
-29 -4 -40 -9z"/>
<path d="M2750 110 c-8 -5 -10 -10 -5 -10 6 0 17 5 25 10 8 5 11 10 5 10 -5 0
-17 -5 -25 -10z"/>
<path d="M2165 101 c-3 -5 -20 -13 -38 -17 -17 -3 -41 -13 -52 -20 -22 -16
-14 -19 13 -5 9 6 28 12 42 15 28 6 72 35 53 36 -6 0 -14 -4 -18 -9z"/>
<path d="M2261 84 c-36 -11 -60 -24 -53 -28 6 -3 23 -4 37 0 14 3 25 2 25 -4
0 -17 -51 -24 -69 -9 -24 21 -51 29 -45 13 3 -9 -5 -13 -25 -14 -38 -1 -101
-23 -101 -35 0 -5 10 -6 23 -2 52 16 70 18 63 6 -5 -7 2 -11 18 -11 13 0 27 6
30 13 5 9 7 9 12 0 10 -23 61 -14 93 15 23 21 28 31 20 39 -9 9 -5 14 14 18
14 4 30 4 36 1 11 -7 41 3 41 13 0 14 -54 7 -119 -15z"/>
<path d="M1875 90 c-3 -5 1 -10 9 -10 8 0 18 5 21 10 3 6 -1 10 -9 10 -8 0
-18 -4 -21 -10z"/>
<path d="M1947 85 c-58 -16 -64 -21 -37 -28 11 -3 18 -1 15 3 -3 5 10 12 30
16 19 3 38 10 41 15 3 5 4 9 2 8 -2 0 -25 -7 -51 -14z"/>
<path d="M2785 80 c3 -6 -5 -10 -19 -10 -25 0 -43 -16 -31 -28 3 -3 9 -1 13 5
4 6 22 14 41 18 24 5 30 10 20 16 -19 12 -32 11 -24 -1z"/>
<path d="M2320 69 c0 -5 5 -7 10 -4 6 3 10 8 10 11 0 2 -4 4 -10 4 -5 0 -10
-5 -10 -11z"/>
<path d="M2894 64 c-18 -14 -18 -15 4 -4 12 6 22 13 22 15 0 8 -5 6 -26 -11z"/>
<path d="M3350 70 c-13 -8 -13 -10 2 -10 9 0 20 5 23 10 8 13 -5 13 -25 0z"/>
<path d="M2815 45 c-16 -14 -27 -25 -23 -25 9 0 78 41 78 46 0 11 -29 0 -55
-21z"/>
<path d="M798 53 c7 -3 16 -2 19 1 4 3 -2 6 -13 5 -11 0 -14 -3 -6 -6z"/>
<path d="M2366 34 c-74 -30 -75 -31 -23 -30 48 2 70 12 61 28 -5 8 -1 9 10 5
9 -4 15 -3 11 2 -3 5 1 12 7 14 7 3 9 5 3 5 -5 0 -36 -10 -69 -24z m11 -20
c-3 -3 -12 -4 -19 -1 -8 3 -5 6 6 6 11 1 17 -2 13 -5z"/>
<path d="M2498 44 c-38 -20 -36 -28 2 -9 17 9 30 18 30 20 0 7 -1 6 -32 -11z"/>
<path d="M1970 39 c0 -11 27 -12 34 -1 2 4 -4 9 -15 9 -10 1 -19 -2 -19 -8z"/>
<path d="M2846 29 c-15 -15 -16 -19 -5 -19 8 0 21 6 28 13 11 10 13 9 9 -3 -4
-11 1 -16 14 -17 17 -2 18 0 6 14 -11 14 -10 15 12 8 21 -7 22 -6 10 7 -21 20
-52 19 -74 -3z"/>
<path d="M2575 19 c-22 -10 -34 -19 -27 -19 7 0 26 7 43 15 30 16 64 10 38 -6
-8 -5 -9 -9 -3 -9 18 0 24 13 13 27 -14 16 -14 16 -64 -8z"/>
<path d="M1785 15 c-18 -14 -16 -15 27 -14 39 2 44 4 33 16 -17 17 -35 16 -60
-2z"/>
<path d="M1910 20 c-9 -6 -10 -10 -3 -10 6 0 15 5 18 10 8 12 4 12 -15 0z"/>
<path d="M3471 14 c0 -11 3 -14 6 -6 3 7 2 16 -1 19 -3 4 -6 -2 -5 -13z"/>
<path d="M2690 10 c-12 -8 -9 -9 12 -8 15 1 24 6 22 10 -7 10 -16 10 -34 -2z"/>
<path d="M3140 10 c0 -5 5 -10 11 -10 5 0 7 5 4 10 -3 6 -8 10 -11 10 -2 0 -4
-4 -4 -10z"/>
<path d="M3225 10 c-3 -5 -1 -10 4 -10 6 0 11 5 11 10 0 6 -2 10 -4 10 -3 0
-8 -4 -11 -10z"/>
<path d="M1978 3 c7 -3 16 -2 19 1 4 3 -2 6 -13 5 -11 0 -14 -3 -6 -6z"/>
</g>
</svg>
