<svg width="16" height="12" viewBox="0 0 16 12" fill="none" xmlns="http://www.w3.org/2000/svg">
<path d="M15.3651 6.56L10.3851 11.56C10.2251 11.72 10.0251 11.8 9.82509 11.8C9.62509 11.8 9.42509 11.72 9.26509 11.56C8.94509 11.24 8.94509 10.74 9.26509 10.42L12.8851 6.78H1.20509C0.76509 6.78 0.40509 6.42 0.40509 5.98C0.40509 5.54 0.76509 5.18 1.20509 5.18H12.8851L9.26509 1.54001C8.94509 1.22001 8.94509 0.720004 9.26509 0.400004C9.58509 0.0800037 10.0851 0.0800037 10.4051 0.400004L15.3851 5.4C15.6851 5.74 15.6851 6.26 15.3651 6.56Z" fill="black"/>
</svg>
